<svg width="15" height="14" viewBox="0 0 15 14" fill="none" xmlns="http://www.w3.org/2000/svg">
<path d="M11.0926 3.2358C10.9273 3.2358 10.7657 3.28158 10.6282 3.36736C10.4908 3.45314 10.3837 3.57507 10.3204 3.71772C10.2571 3.86036 10.2406 4.01733 10.2728 4.16877C10.3051 4.3202 10.3847 4.4593 10.5016 4.56848C10.6185 4.67766 10.7674 4.75201 10.9295 4.78213C11.0917 4.81226 11.2597 4.7968 11.4125 4.73771C11.5652 4.67862 11.6957 4.57856 11.7876 4.45018C11.8794 4.3218 11.9284 4.17087 11.9284 4.01647C11.9284 3.80942 11.8404 3.61085 11.6836 3.46445C11.5269 3.31804 11.3143 3.2358 11.0926 3.2358ZM14.2966 4.81015C14.283 4.27038 14.1748 3.73634 13.9762 3.22929C13.7991 2.79545 13.5234 2.40261 13.1682 2.0778C12.8233 1.74434 12.4017 1.48851 11.9354 1.32966C11.3939 1.1385 10.8215 1.03509 10.2428 1.0239C9.50454 0.984863 9.26772 0.984863 7.37319 0.984863C5.47867 0.984863 5.24185 0.984863 4.50354 1.0239C3.92484 1.03509 3.35244 1.1385 2.811 1.32966C2.34551 1.49012 1.92429 1.74573 1.57817 2.0778C1.22115 2.39994 0.947247 2.7937 0.777174 3.22929C0.57251 3.735 0.461798 4.26963 0.449811 4.81015C0.40802 5.49974 0.40802 5.72093 0.40802 7.49045C0.40802 9.25997 0.40802 9.48116 0.449811 10.1707C0.461798 10.7113 0.57251 11.2459 0.777174 11.7516C0.947247 12.1872 1.22115 12.5809 1.57817 12.9031C1.92429 13.2352 2.34551 13.4908 2.811 13.6512C3.35244 13.8424 3.92484 13.9458 4.50354 13.957C5.24185 13.996 5.47867 13.996 7.37319 13.996C9.26772 13.996 9.50454 13.996 10.2428 13.957C10.8215 13.9458 11.3939 13.8424 11.9354 13.6512C12.4017 13.4924 12.8233 13.2366 13.1682 12.9031C13.525 12.5795 13.8009 12.1863 13.9762 11.7516C14.1748 11.2446 14.283 10.7105 14.2966 10.1707C14.2966 9.48116 14.3384 9.25997 14.3384 7.49045C14.3384 5.72093 14.3384 5.49974 14.2966 4.81015ZM13.0428 10.0927C13.0378 10.5056 12.9577 10.9148 12.806 11.3027C12.6948 11.5858 12.5162 11.8417 12.2836 12.0509C12.0577 12.2659 11.7844 12.4324 11.4826 12.5388C11.0673 12.6804 10.6293 12.7552 10.1871 12.76C9.49061 12.7925 9.23289 12.799 7.40105 12.799C5.56921 12.799 5.3115 12.799 4.61498 12.76C4.1559 12.768 3.69878 12.702 3.26374 12.5648C2.97523 12.453 2.71444 12.2869 2.49757 12.0769C2.26639 11.8679 2.09 11.6119 1.98215 11.3287C1.8121 10.9353 1.71778 10.5168 1.70354 10.0927C1.70354 9.44212 1.66175 9.20142 1.66175 7.49045C1.66175 5.77948 1.66175 5.53877 1.70354 4.88821C1.70666 4.46604 1.78918 4.04766 1.94732 3.65215C2.06994 3.37756 2.25815 3.13278 2.49757 2.93654C2.70918 2.71286 2.97071 2.53521 3.26374 2.41609C3.6883 2.273 4.13578 2.19821 4.58712 2.1949C5.28364 2.1949 5.54135 2.15587 7.37319 2.15587C9.20503 2.15587 9.46275 2.15587 10.1593 2.1949C10.6014 2.19964 11.0395 2.27443 11.4548 2.41609C11.7713 2.52581 12.0554 2.70419 12.2836 2.93654C12.5119 3.13638 12.6902 3.3807 12.806 3.65215C12.9608 4.0483 13.041 4.46651 13.0428 4.88821C13.0777 5.53877 13.0846 5.77948 13.0846 7.49045C13.0846 9.20142 13.0777 9.44212 13.0428 10.0927ZM7.37319 4.15308C6.66679 4.15437 5.97665 4.35119 5.38997 4.71869C4.80329 5.08618 4.34639 5.60786 4.07702 6.21779C3.80764 6.82773 3.73788 7.49856 3.87653 8.14551C4.01519 8.79247 4.35604 9.38652 4.85603 9.85261C5.35602 10.3187 5.9927 10.6359 6.68563 10.7642C7.37856 10.8924 8.09664 10.8259 8.74914 10.5731C9.40164 10.3204 9.95928 9.89259 10.3516 9.34391C10.7439 8.79522 10.9533 8.15024 10.9533 7.49045C10.9542 7.05139 10.8622 6.61649 10.6825 6.21077C10.5028 5.80505 10.2391 5.43651 9.90634 5.12635C9.57362 4.81619 9.17853 4.57053 8.7438 4.4035C8.30907 4.23647 7.84327 4.15137 7.37319 4.15308ZM7.37319 9.65681C6.91446 9.65681 6.46603 9.52975 6.0846 9.29171C5.70318 9.05367 5.40589 8.71533 5.23034 8.31948C5.05479 7.92363 5.00886 7.48804 5.09836 7.06781C5.18785 6.64758 5.40875 6.26157 5.73313 5.9586C6.0575 5.65563 6.47078 5.4493 6.9207 5.36571C7.37062 5.28212 7.83698 5.32503 8.26079 5.48899C8.68461 5.65296 9.04685 5.93063 9.30171 6.28688C9.55657 6.64314 9.6926 7.06198 9.6926 7.49045C9.6926 7.77494 9.6326 8.05664 9.51604 8.31948C9.39948 8.58231 9.22864 8.82113 9.01326 9.02229C8.79788 9.22346 8.54219 9.38303 8.26079 9.4919C7.97939 9.60077 7.67778 9.65681 7.37319 9.65681Z" fill="white"/>
</svg>
